<svg width="494" height="494" viewBox="0 0 494 494" fill="none" xmlns="http://www.w3.org/2000/svg">
<path fill-rule="evenodd" clip-rule="evenodd" d="M238.476 486.526C239.386 486.553 240.294 486.592 241.206 486.609C242.301 486.632 243.4 486.638 244.498 486.65C244.836 486.651 245.174 486.651 245.511 486.651C242.564 486.637 239.632 486.564 236.711 486.445C237.3 486.469 237.885 486.506 238.476 486.526ZM245.511 486.651C277.32 486.678 310.192 480.403 342.888 466.546C350.027 463.414 356.958 459.982 363.67 456.258C392.139 440.33 417.029 418.771 436.834 393.088C438.175 391.324 452.811 372.734 451.015 371.457C445.887 367.808 435.903 367.542 426.307 372.321C414.685 378.11 405.948 387 393.39 393.975C381.902 400.356 368.609 406.074 355.192 410.278C326.091 419.399 287.624 421.696 256.963 412.703C245.861 409.446 226.149 401.665 223.794 390.996C217.863 364.133 282.511 382.451 303.377 360C308.319 354.683 310.352 346.399 304.957 339.551C300.725 334.177 292.973 332.65 283.95 332.721C265.75 332.863 251.729 335.585 231.853 334.491C214.527 333.537 199.21 330.239 179.929 330.458C135.315 330.966 115.31 354.318 86.2311 343.61C48.4525 329.698 16.9437 290.243 11.866 250.842C13.6805 366.616 93.173 462.2 202.621 482.619C202.955 482.681 203.285 482.75 203.62 482.81C204.723 483.009 205.833 483.19 206.942 483.376C207.843 483.526 208.742 483.683 209.646 483.823C210.468 483.951 211.295 484.062 212.12 484.182C213.285 484.35 214.448 484.52 215.617 484.671C216.383 484.77 217.154 484.855 217.922 484.947C219.121 485.09 220.32 485.234 221.525 485.359C222.366 485.446 223.211 485.52 224.054 485.599C225.183 485.704 226.311 485.81 227.445 485.9C228.406 485.976 229.372 486.038 230.337 486.102C231.332 486.169 232.326 486.237 233.325 486.292C234.451 486.353 235.581 486.399 236.711 486.445C239.632 486.564 242.564 486.637 245.511 486.651ZM363.67 456.258C392.392 440.322 417.095 419.044 436.834 393.088C417.029 418.771 392.139 440.33 363.67 456.258Z" fill="#B4663F"/>
<path d="M448.074 377.237C405.286 443.104 331.064 486.667 246.667 486.667C114.118 486.667 6.66673 379.215 6.66673 246.667C6.66673 114.118 114.118 6.66675 246.667 6.66675C379.215 6.66675 486.667 114.118 486.667 246.667C486.667 276.328 481.286 304.734 471.447 330.959" stroke="#B4663F" stroke-width="13.3335" stroke-miterlimit="2.61313" stroke-linecap="round" stroke-linejoin="round"/>
<path fill-rule="evenodd" clip-rule="evenodd" d="M349.265 407.423C375.967 408.904 415.869 358.722 400.589 352.735C386.655 347.275 376.22 363.213 371.258 373.374C369.122 377.749 349.294 407.235 349.265 407.423Z" fill="#B4663F"/>
<path fill-rule="evenodd" clip-rule="evenodd" d="M318.709 413.977C334.16 414.509 340.016 411.028 347.472 402.769C351.499 397.268 357.96 388.252 358.828 379.784C359.743 370.865 350.313 372.797 345.753 376.735C343.085 379.04 320.083 410.039 318.709 413.977Z" fill="#B4663F"/>
<path fill-rule="evenodd" clip-rule="evenodd" d="M369.754 405.11C395.668 406.003 439.256 374.545 431.087 364.441C428.496 361.235 422.082 357.524 414.021 361.515C410.53 363.244 406.771 370.175 401.084 377.573C393.641 387.256 381.931 398.835 369.754 405.11Z" fill="#B4663F"/>
<path d="M97.8824 223.762H57.7625V193.717C57.7625 193.045 57.4254 192.727 56.7146 192.727C56.0032 192.727 55.6665 193.045 55.6665 193.717V244.263C55.6665 244.935 56.0032 245.253 56.7146 245.253C57.4254 245.253 57.7625 244.935 57.7625 244.263V225.812H97.8824V244.263C97.8824 244.935 98.2192 245.253 98.9301 245.253C99.6788 245.253 100.053 244.935 100.053 244.263V193.717C100.053 193.045 99.6788 192.727 98.9301 192.727C98.2192 192.727 97.8824 193.045 97.8824 193.717V223.762ZM114.312 236.734H150.577L154.095 244.687C154.245 245.076 154.469 245.253 154.769 245.253C155.48 245.253 156.116 244.793 156.116 244.404C156.116 244.192 156.079 244.016 155.966 243.839L133.511 193.151C133.399 192.691 133.099 192.444 132.65 192.444H132.201C131.864 192.444 131.64 192.621 131.452 192.975L108.885 243.91C108.81 244.086 108.773 244.263 108.773 244.404C108.773 244.793 109.222 245.253 110.083 245.253C110.495 245.288 110.607 245.076 110.869 244.546L114.312 236.734ZM115.21 234.719L132.426 195.873L149.679 234.719H115.21ZM208.324 242.566L166.632 192.02C166.333 191.737 166.183 191.667 165.734 191.667C165.173 191.667 164.911 191.985 164.911 192.656V244.263C164.911 244.935 165.285 245.253 166.034 245.253C166.745 245.253 167.082 244.935 167.082 244.263V195.767L208.399 246.243C208.661 246.49 208.848 246.667 209.447 246.667C210.009 246.667 210.345 246.419 210.42 245.889V193.717C210.42 193.045 210.083 192.727 209.372 192.727C208.661 192.727 208.324 193.045 208.324 193.717V242.566ZM222.845 244.546C222.845 244.758 222.92 244.899 223.07 244.97L223.22 245.112C223.369 245.217 223.556 245.253 223.968 245.253H241.558C257.052 245.253 269.702 233.73 269.702 219.096C269.702 204.533 257.276 193.01 242.082 192.727H223.594C223.107 192.798 222.845 193.116 222.845 193.717V244.546ZM225.016 243.274V194.706H241.558C255.779 194.706 267.531 205.593 267.531 219.096C267.531 232.457 255.779 243.274 241.558 243.274H225.016ZM276.925 219.025C276.925 233.871 289.575 245.818 305.293 245.818C320.9 245.818 333.737 233.871 333.737 219.025C333.737 204.25 320.937 192.161 305.293 192.161C289.575 192.161 276.925 204.286 276.925 219.025ZM279.171 219.025C279.171 205.452 290.922 194.282 305.293 194.282C319.665 194.282 331.491 205.452 331.491 219.025C331.491 232.599 319.665 243.698 305.293 243.698C290.922 243.698 279.171 232.599 279.171 219.025ZM383.849 211.885C383.849 202.836 377.187 192.727 362.741 192.727H345.002L344.552 192.939C344.365 193.045 344.253 193.328 344.253 193.717V244.263C344.253 244.935 344.59 245.253 345.301 245.253C346.012 245.253 346.349 244.935 346.349 244.263V230.972H362.741C366.034 230.972 368.954 230.478 371.499 229.488L378.684 243.768C379.096 244.864 379.657 245.253 380.406 245.253C381.416 245.147 381.753 244.404 381.304 243.698L373.67 228.498C380.555 224.999 383.849 218.142 383.849 211.885ZM346.349 228.922V194.706H362.741C375.99 194.706 381.678 203.826 381.678 211.885C381.678 219.873 375.99 228.922 362.741 228.922H346.349ZM395.863 236.734H432.128L435.645 244.687C435.795 245.076 436.02 245.253 436.319 245.253C437.03 245.253 437.666 244.793 437.666 244.404C437.666 244.192 437.629 244.016 437.517 243.839L415.062 193.151C414.949 192.691 414.65 192.444 414.201 192.444H413.752C413.415 192.444 413.19 192.621 413.003 192.975L390.436 243.91C390.361 244.086 390.324 244.263 390.324 244.404C390.324 244.793 390.772 245.253 391.633 245.253C392.045 245.288 392.157 245.076 392.419 244.546L395.863 236.734ZM396.76 234.719L413.976 195.873L431.229 234.719H396.76Z" fill="#777545" stroke="#777545" stroke-width="2.6668" stroke-miterlimit="2.61313" stroke-linecap="round" stroke-linejoin="round"/>
</svg>
