<svg width="494" height="494" viewBox="0 0 494 494" fill="none" xmlns="http://www.w3.org/2000/svg">
<path fill-rule="evenodd" clip-rule="evenodd" d="M238.476 486.526C239.386 486.553 240.294 486.592 241.206 486.609C242.301 486.632 243.4 486.638 244.498 486.65C244.836 486.651 245.174 486.651 245.511 486.651C242.564 486.637 239.632 486.564 236.711 486.445C237.3 486.469 237.885 486.506 238.476 486.526ZM245.511 486.651C277.32 486.678 310.192 480.403 342.888 466.546C350.027 463.414 356.958 459.982 363.67 456.258C392.139 440.33 417.029 418.771 436.834 393.088C438.175 391.324 452.811 372.734 451.015 371.457C445.887 367.808 435.903 367.542 426.307 372.321C414.685 378.11 405.948 387 393.39 393.975C381.902 400.356 368.609 406.074 355.192 410.278C326.091 419.399 287.624 421.696 256.963 412.703C245.861 409.446 226.149 401.665 223.794 390.996C217.863 364.133 282.511 382.451 303.377 360C308.319 354.683 310.352 346.399 304.957 339.551C300.725 334.177 292.973 332.65 283.95 332.721C265.75 332.863 251.729 335.585 231.853 334.491C214.527 333.537 199.21 330.239 179.929 330.458C135.315 330.966 115.31 354.318 86.2311 343.61C48.4525 329.698 16.9437 290.243 11.866 250.842C13.6805 366.616 93.173 462.2 202.621 482.619C202.955 482.681 203.285 482.75 203.62 482.81C204.723 483.009 205.833 483.19 206.942 483.376C207.843 483.526 208.742 483.683 209.646 483.823C210.468 483.951 211.295 484.062 212.12 484.182C213.285 484.35 214.448 484.52 215.617 484.671C216.383 484.77 217.154 484.855 217.922 484.947C219.121 485.09 220.32 485.234 221.525 485.359C222.366 485.446 223.211 485.52 224.054 485.599C225.183 485.704 226.311 485.81 227.445 485.9C228.406 485.976 229.372 486.038 230.337 486.102C231.332 486.169 232.326 486.237 233.325 486.292C234.451 486.353 235.581 486.399 236.711 486.445C239.632 486.564 242.564 486.637 245.511 486.651ZM363.67 456.258C392.392 440.322 417.095 419.044 436.834 393.088C417.029 418.771 392.139 440.33 363.67 456.258Z" fill="white"/>
<path d="M448.074 377.237C405.286 443.104 331.064 486.667 246.667 486.667C114.118 486.667 6.66673 379.215 6.66673 246.667C6.66673 114.118 114.118 6.66675 246.667 6.66675C379.215 6.66675 486.667 114.118 486.667 246.667C486.667 276.328 481.286 304.734 471.447 330.959" stroke="white" stroke-width="13.3335" stroke-miterlimit="2.61313" stroke-linecap="round" stroke-linejoin="round"/>
<path fill-rule="evenodd" clip-rule="evenodd" d="M349.265 407.423C375.967 408.904 415.868 358.722 400.589 352.735C386.654 347.275 376.22 363.213 371.258 373.374C369.121 377.749 349.294 407.235 349.265 407.423Z" fill="white"/>
<path fill-rule="evenodd" clip-rule="evenodd" d="M318.708 413.977C334.159 414.509 340.015 411.028 347.471 402.769C351.498 397.268 357.96 388.252 358.828 379.784C359.742 370.865 350.313 372.797 345.752 376.735C343.084 379.04 320.083 410.039 318.708 413.977Z" fill="white"/>
<path fill-rule="evenodd" clip-rule="evenodd" d="M369.754 405.11C395.668 406.003 439.255 374.545 431.087 364.441C428.496 361.235 422.082 357.524 414.021 361.515C410.529 363.244 406.77 370.175 401.084 377.573C393.64 387.256 381.93 398.835 369.754 405.11Z" fill="white"/>
<mask id="path-6-outside-1_20_1245" maskUnits="userSpaceOnUse" x="52.6584" y="174.134" width="415.118" height="77.6376" fill="black">
<rect fill="white" x="52.6584" y="174.134" width="415.118" height="77.6376"/>
<path d="M102.483 219.011L59.9486 219.077L59.8928 182.763C59.8915 181.952 59.5336 181.568 58.7799 181.569C58.0258 181.57 57.6694 181.955 57.6707 182.767L57.7645 243.859C57.7658 244.671 58.1234 245.054 58.8775 245.053C59.6311 245.052 59.9879 244.667 59.9866 243.855L59.9524 221.555L102.486 221.489L102.521 243.79C102.522 244.602 102.879 244.986 103.633 244.985C104.427 244.983 104.823 244.598 104.822 243.786L104.728 182.694C104.727 181.883 104.329 181.499 103.536 181.5C102.782 181.501 102.425 181.886 102.427 182.698L102.483 219.011ZM119.925 234.664L158.372 234.605L162.116 244.211C162.275 244.681 162.514 244.894 162.831 244.894C163.585 244.892 164.259 244.336 164.258 243.866C164.258 243.61 164.218 243.396 164.099 243.183L140.198 181.957C140.078 181.401 139.76 181.103 139.284 181.103L138.808 181.104C138.451 181.105 138.213 181.319 138.015 181.746L114.185 243.345C114.106 243.559 114.066 243.772 114.067 243.943C114.067 244.413 114.544 244.968 115.457 244.966C115.893 245.008 116.012 244.752 116.289 244.11L119.925 234.664ZM120.873 232.227L139.052 185.248L157.416 232.171L120.873 232.227ZM219.604 241.56L175.31 180.535C174.992 180.194 174.833 180.109 174.358 180.11C173.762 180.111 173.485 180.495 173.486 181.307L173.582 243.681C173.583 244.493 173.981 244.876 174.774 244.875C175.528 244.874 175.885 244.489 175.884 243.677L175.794 185.063L219.691 246.002C219.969 246.301 220.168 246.514 220.802 246.513C221.398 246.512 221.754 246.213 221.833 245.572L221.736 182.515C221.735 181.703 221.377 181.319 220.623 181.32C219.869 181.321 219.512 181.706 219.514 182.518L219.604 241.56ZM235.003 243.928C235.003 244.185 235.083 244.355 235.242 244.441L235.401 244.611C235.56 244.739 235.758 244.782 236.195 244.781L254.843 244.752C271.269 244.727 284.659 230.779 284.632 213.092C284.604 195.491 271.41 181.584 255.301 181.267L235.7 181.297C235.184 181.383 234.907 181.768 234.908 182.494L235.003 243.928ZM237.302 242.387L237.212 183.687L254.749 183.66C269.826 183.637 282.305 196.776 282.33 213.096C282.355 229.245 269.916 242.337 254.839 242.36L237.302 242.387ZM292.289 212.995C292.317 230.938 305.75 245.357 322.414 245.332C338.96 245.306 352.547 230.846 352.519 212.903C352.492 195.045 338.9 180.455 322.315 180.48C305.65 180.506 292.262 195.18 292.289 212.995ZM294.67 212.991C294.645 196.586 307.082 183.067 322.318 183.044C337.555 183.02 350.113 196.501 350.138 212.906C350.164 229.311 337.646 242.745 322.41 242.769C307.174 242.792 294.695 229.397 294.67 212.991ZM405.634 204.191C405.617 193.254 398.535 181.047 383.22 181.07L364.413 181.099L363.937 181.356C363.739 181.485 363.621 181.827 363.621 182.297L363.715 243.389C363.716 244.201 364.074 244.584 364.828 244.583C365.582 244.582 365.939 244.197 365.937 243.385L365.913 227.322L383.291 227.295C386.783 227.29 389.876 226.687 392.573 225.486L400.217 242.735C400.656 244.058 401.252 244.527 402.045 244.526C403.116 244.396 403.472 243.498 402.995 242.645L394.872 224.287C402.166 220.046 405.645 211.753 405.634 204.191ZM365.909 224.844L365.845 183.489L383.224 183.463C397.269 183.441 403.317 194.454 403.332 204.194C403.347 213.85 397.333 224.796 383.287 224.817L365.909 224.844ZM418.416 234.205L456.863 234.146L460.607 243.753C460.767 244.222 461.005 244.435 461.323 244.435C462.076 244.434 462.75 243.877 462.75 243.407C462.749 243.151 462.709 242.938 462.59 242.724L438.689 181.498C438.569 180.942 438.252 180.644 437.775 180.645L437.299 180.645C436.942 180.646 436.705 180.86 436.507 181.288L412.676 242.886C412.597 243.1 412.558 243.313 412.558 243.484C412.559 243.955 413.036 244.509 413.948 244.508C414.385 244.55 414.503 244.293 414.78 243.652L418.416 234.205ZM419.364 231.768L437.544 184.789L455.907 231.712L419.364 231.768Z"/>
</mask>
<path d="M102.483 219.011L59.9486 219.077L59.8928 182.763C59.8915 181.952 59.5336 181.568 58.7799 181.569C58.0258 181.57 57.6694 181.955 57.6707 182.767L57.7645 243.859C57.7658 244.671 58.1234 245.054 58.8775 245.053C59.6311 245.052 59.9879 244.667 59.9866 243.855L59.9524 221.555L102.486 221.489L102.521 243.79C102.522 244.602 102.879 244.986 103.633 244.985C104.427 244.983 104.823 244.598 104.822 243.786L104.728 182.694C104.727 181.883 104.329 181.499 103.536 181.5C102.782 181.501 102.425 181.886 102.427 182.698L102.483 219.011ZM119.925 234.664L158.372 234.605L162.116 244.211C162.275 244.681 162.514 244.894 162.831 244.894C163.585 244.892 164.259 244.336 164.258 243.866C164.258 243.61 164.218 243.396 164.099 243.183L140.198 181.957C140.078 181.401 139.76 181.103 139.284 181.103L138.808 181.104C138.451 181.105 138.213 181.319 138.015 181.746L114.185 243.345C114.106 243.559 114.066 243.772 114.067 243.943C114.067 244.413 114.544 244.968 115.457 244.966C115.893 245.008 116.012 244.752 116.289 244.11L119.925 234.664ZM120.873 232.227L139.052 185.248L157.416 232.171L120.873 232.227ZM219.604 241.56L175.31 180.535C174.992 180.194 174.833 180.109 174.358 180.11C173.762 180.111 173.485 180.495 173.486 181.307L173.582 243.681C173.583 244.493 173.981 244.876 174.774 244.875C175.528 244.874 175.885 244.489 175.884 243.677L175.794 185.063L219.691 246.002C219.969 246.301 220.168 246.514 220.802 246.513C221.398 246.512 221.754 246.213 221.833 245.572L221.736 182.515C221.735 181.703 221.377 181.319 220.623 181.32C219.869 181.321 219.512 181.706 219.514 182.518L219.604 241.56ZM235.003 243.928C235.003 244.185 235.083 244.355 235.242 244.441L235.401 244.611C235.56 244.739 235.758 244.782 236.195 244.781L254.843 244.752C271.269 244.727 284.659 230.779 284.632 213.092C284.604 195.491 271.41 181.584 255.301 181.267L235.7 181.297C235.184 181.383 234.907 181.768 234.908 182.494L235.003 243.928ZM237.302 242.387L237.212 183.687L254.749 183.66C269.826 183.637 282.305 196.776 282.33 213.096C282.355 229.245 269.916 242.337 254.839 242.36L237.302 242.387ZM292.289 212.995C292.317 230.938 305.75 245.357 322.414 245.332C338.96 245.306 352.547 230.846 352.519 212.903C352.492 195.045 338.9 180.455 322.315 180.48C305.65 180.506 292.262 195.18 292.289 212.995ZM294.67 212.991C294.645 196.586 307.082 183.067 322.318 183.044C337.555 183.02 350.113 196.501 350.138 212.906C350.164 229.311 337.646 242.745 322.41 242.769C307.174 242.792 294.695 229.397 294.67 212.991ZM405.634 204.191C405.617 193.254 398.535 181.047 383.22 181.07L364.413 181.099L363.937 181.356C363.739 181.485 363.621 181.827 363.621 182.297L363.715 243.389C363.716 244.201 364.074 244.584 364.828 244.583C365.582 244.582 365.939 244.197 365.937 243.385L365.913 227.322L383.291 227.295C386.783 227.29 389.876 226.687 392.573 225.486L400.217 242.735C400.656 244.058 401.252 244.527 402.045 244.526C403.116 244.396 403.472 243.498 402.995 242.645L394.872 224.287C402.166 220.046 405.645 211.753 405.634 204.191ZM365.909 224.844L365.845 183.489L383.224 183.463C397.269 183.441 403.317 194.454 403.332 204.194C403.347 213.85 397.333 224.796 383.287 224.817L365.909 224.844ZM418.416 234.205L456.863 234.146L460.607 243.753C460.767 244.222 461.005 244.435 461.323 244.435C462.076 244.434 462.75 243.877 462.75 243.407C462.749 243.151 462.709 242.938 462.59 242.724L438.689 181.498C438.569 180.942 438.252 180.644 437.775 180.645L437.299 180.645C436.942 180.646 436.705 180.86 436.507 181.288L412.676 242.886C412.597 243.1 412.558 243.313 412.558 243.484C412.559 243.955 413.036 244.509 413.948 244.508C414.385 244.55 414.503 244.293 414.78 243.652L418.416 234.205ZM419.364 231.768L437.544 184.789L455.907 231.712L419.364 231.768Z" fill="white"/>
<path d="M102.483 219.011L59.9486 219.077L59.8928 182.763C59.8915 181.952 59.5336 181.568 58.7799 181.569C58.0258 181.57 57.6694 181.955 57.6707 182.767L57.7645 243.859C57.7658 244.671 58.1234 245.054 58.8775 245.053C59.6311 245.052 59.9879 244.667 59.9866 243.855L59.9524 221.555L102.486 221.489L102.521 243.79C102.522 244.602 102.879 244.986 103.633 244.985C104.427 244.983 104.823 244.598 104.822 243.786L104.728 182.694C104.727 181.883 104.329 181.499 103.536 181.5C102.782 181.501 102.425 181.886 102.427 182.698L102.483 219.011ZM119.925 234.664L158.372 234.605L162.116 244.211C162.275 244.681 162.514 244.894 162.831 244.894C163.585 244.892 164.259 244.336 164.258 243.866C164.258 243.61 164.218 243.396 164.099 243.183L140.198 181.957C140.078 181.401 139.76 181.103 139.284 181.103L138.808 181.104C138.451 181.105 138.213 181.319 138.015 181.746L114.185 243.345C114.106 243.559 114.066 243.772 114.067 243.943C114.067 244.413 114.544 244.968 115.457 244.966C115.893 245.008 116.012 244.752 116.289 244.11L119.925 234.664ZM120.873 232.227L139.052 185.248L157.416 232.171L120.873 232.227ZM219.604 241.56L175.31 180.535C174.992 180.194 174.833 180.109 174.358 180.11C173.762 180.111 173.485 180.495 173.486 181.307L173.582 243.681C173.583 244.493 173.981 244.876 174.774 244.875C175.528 244.874 175.885 244.489 175.884 243.677L175.794 185.063L219.691 246.002C219.969 246.301 220.168 246.514 220.802 246.513C221.398 246.512 221.754 246.213 221.833 245.572L221.736 182.515C221.735 181.703 221.377 181.319 220.623 181.32C219.869 181.321 219.512 181.706 219.514 182.518L219.604 241.56ZM235.003 243.928C235.003 244.185 235.083 244.355 235.242 244.441L235.401 244.611C235.56 244.739 235.758 244.782 236.195 244.781L254.843 244.752C271.269 244.727 284.659 230.779 284.632 213.092C284.604 195.491 271.41 181.584 255.301 181.267L235.7 181.297C235.184 181.383 234.907 181.768 234.908 182.494L235.003 243.928ZM237.302 242.387L237.212 183.687L254.749 183.66C269.826 183.637 282.305 196.776 282.33 213.096C282.355 229.245 269.916 242.337 254.839 242.36L237.302 242.387ZM292.289 212.995C292.317 230.938 305.75 245.357 322.414 245.332C338.96 245.306 352.547 230.846 352.519 212.903C352.492 195.045 338.9 180.455 322.315 180.48C305.65 180.506 292.262 195.18 292.289 212.995ZM294.67 212.991C294.645 196.586 307.082 183.067 322.318 183.044C337.555 183.02 350.113 196.501 350.138 212.906C350.164 229.311 337.646 242.745 322.41 242.769C307.174 242.792 294.695 229.397 294.67 212.991ZM405.634 204.191C405.617 193.254 398.535 181.047 383.22 181.07L364.413 181.099L363.937 181.356C363.739 181.485 363.621 181.827 363.621 182.297L363.715 243.389C363.716 244.201 364.074 244.584 364.828 244.583C365.582 244.582 365.939 244.197 365.937 243.385L365.913 227.322L383.291 227.295C386.783 227.29 389.876 226.687 392.573 225.486L400.217 242.735C400.656 244.058 401.252 244.527 402.045 244.526C403.116 244.396 403.472 243.498 402.995 242.645L394.872 224.287C402.166 220.046 405.645 211.753 405.634 204.191ZM365.909 224.844L365.845 183.489L383.224 183.463C397.269 183.441 403.317 194.454 403.332 204.194C403.347 213.85 397.333 224.796 383.287 224.817L365.909 224.844ZM418.416 234.205L456.863 234.146L460.607 243.753C460.767 244.222 461.005 244.435 461.323 244.435C462.076 244.434 462.75 243.877 462.75 243.407C462.749 243.151 462.709 242.938 462.59 242.724L438.689 181.498C438.569 180.942 438.252 180.644 437.775 180.645L437.299 180.645C436.942 180.646 436.705 180.86 436.507 181.288L412.676 242.886C412.597 243.1 412.558 243.313 412.558 243.484C412.559 243.955 413.036 244.509 413.948 244.508C414.385 244.55 414.503 244.293 414.78 243.652L418.416 234.205ZM419.364 231.768L437.544 184.789L455.907 231.712L419.364 231.768Z" stroke="white" stroke-width="10" stroke-miterlimit="2.61313" stroke-linecap="round" stroke-linejoin="round" mask="url(#path-6-outside-1_20_1245)"/>
</svg>
