<svg width="494" height="494" viewBox="0 0 494 494" fill="none" xmlns="http://www.w3.org/2000/svg">
<path fill-rule="evenodd" clip-rule="evenodd" d="M238.476 486.526C239.386 486.553 240.294 486.592 241.206 486.609C242.301 486.632 243.4 486.638 244.498 486.65C244.836 486.651 245.174 486.651 245.511 486.651C242.564 486.637 239.632 486.564 236.711 486.445C237.3 486.469 237.885 486.506 238.476 486.526ZM245.511 486.651C277.32 486.678 310.192 480.403 342.888 466.546C350.027 463.414 356.958 459.982 363.67 456.258C392.139 440.33 417.029 418.771 436.834 393.088C438.175 391.324 452.811 372.734 451.015 371.457C445.887 367.808 435.903 367.542 426.307 372.321C414.685 378.11 405.948 387 393.39 393.975C381.902 400.356 368.609 406.074 355.192 410.278C326.091 419.399 287.624 421.696 256.963 412.703C245.861 409.446 226.149 401.665 223.794 390.996C217.863 364.133 282.511 382.451 303.377 360C308.319 354.683 310.352 346.399 304.957 339.551C300.725 334.177 292.973 332.65 283.95 332.721C265.75 332.863 251.729 335.585 231.853 334.491C214.527 333.537 199.21 330.239 179.929 330.458C135.315 330.966 115.31 354.318 86.2311 343.61C48.4525 329.698 16.9437 290.243 11.866 250.842C13.6805 366.616 93.173 462.2 202.621 482.619C202.955 482.681 203.285 482.75 203.62 482.81C204.723 483.009 205.833 483.19 206.942 483.376C207.843 483.526 208.742 483.683 209.646 483.823C210.468 483.951 211.295 484.062 212.12 484.182C213.285 484.35 214.448 484.52 215.617 484.671C216.383 484.77 217.154 484.855 217.922 484.947C219.121 485.09 220.32 485.234 221.525 485.359C222.366 485.446 223.211 485.52 224.054 485.599C225.183 485.704 226.311 485.81 227.445 485.9C228.406 485.976 229.372 486.038 230.337 486.102C231.332 486.169 232.326 486.237 233.325 486.292C234.451 486.353 235.581 486.399 236.711 486.445C239.632 486.564 242.564 486.637 245.511 486.651ZM363.67 456.258C392.392 440.322 417.095 419.044 436.834 393.088C417.029 418.771 392.139 440.33 363.67 456.258Z" fill="white"/>
<path d="M448.074 377.237C405.286 443.104 331.064 486.667 246.667 486.667C114.118 486.667 6.66673 379.215 6.66673 246.667C6.66673 114.118 114.118 6.66675 246.667 6.66675C379.215 6.66675 486.667 114.118 486.667 246.667C486.667 276.328 481.286 304.734 471.447 330.959" stroke="white" stroke-width="13.3335" stroke-miterlimit="2.61313" stroke-linecap="round" stroke-linejoin="round"/>
<path fill-rule="evenodd" clip-rule="evenodd" d="M349.265 407.423C375.967 408.904 415.869 358.722 400.589 352.735C386.655 347.275 376.22 363.213 371.258 373.374C369.122 377.749 349.294 407.235 349.265 407.423Z" fill="white"/>
<path fill-rule="evenodd" clip-rule="evenodd" d="M318.709 413.977C334.16 414.509 340.016 411.028 347.472 402.769C351.499 397.268 357.96 388.252 358.828 379.784C359.743 370.865 350.313 372.797 345.753 376.735C343.085 379.04 320.083 410.039 318.709 413.977Z" fill="white"/>
<path fill-rule="evenodd" clip-rule="evenodd" d="M369.754 405.11C395.668 406.003 439.256 374.545 431.087 364.441C428.496 361.235 422.082 357.524 414.021 361.515C410.53 363.244 406.771 370.175 401.084 377.573C393.641 387.256 381.931 398.835 369.754 405.11Z" fill="white"/>
<mask id="path-6-outside-1_20_1245" maskUnits="userSpaceOnUse" x="53.6667" y="179.667" width="400" height="69" fill="black">
<rect fill="white" x="53.6667" y="179.667" width="400" height="69"/>
<path d="M99.4299 219.597H57.8395V184.089C57.8395 183.296 57.4901 182.92 56.7532 182.92C56.0158 182.92 55.6667 183.296 55.6667 184.089V243.826C55.6667 244.62 56.0158 244.996 56.7532 244.996C57.4901 244.996 57.8395 244.62 57.8395 243.826V222.02H99.4299V243.826C99.4299 244.62 99.7789 244.996 100.516 244.996C101.292 244.996 101.68 244.62 101.68 243.826V184.089C101.68 183.296 101.292 182.92 100.516 182.92C99.7789 182.92 99.4299 183.296 99.4299 184.089V219.597ZM116.462 234.928H154.056L157.702 244.328C157.858 244.787 158.09 244.996 158.401 244.996C159.138 244.996 159.798 244.453 159.798 243.993C159.798 243.743 159.759 243.534 159.643 243.325L136.364 183.421C136.248 182.878 135.938 182.586 135.472 182.586H135.006C134.657 182.586 134.425 182.794 134.23 183.212L110.836 243.408C110.758 243.617 110.72 243.826 110.72 243.993C110.72 244.453 111.185 244.996 112.077 244.996C112.504 245.038 112.62 244.787 112.892 244.16L116.462 234.928ZM117.392 232.547L135.239 186.638L153.124 232.547H117.392ZM213.919 241.821L170.699 182.084C170.389 181.75 170.234 181.667 169.769 181.667C169.186 181.667 168.915 182.043 168.915 182.836V243.826C168.915 244.62 169.303 244.996 170.079 244.996C170.816 244.996 171.165 244.62 171.165 243.826V186.512L213.997 246.166C214.269 246.458 214.463 246.667 215.083 246.667C215.665 246.667 216.014 246.374 216.092 245.748V184.089C216.092 183.296 215.743 182.92 215.006 182.92C214.269 182.92 213.919 183.296 213.919 184.089V241.821ZM228.972 244.16C228.972 244.411 229.05 244.578 229.205 244.662L229.361 244.829C229.516 244.954 229.71 244.996 230.136 244.996H248.371C264.433 244.996 277.546 231.378 277.546 214.083C277.546 196.872 264.666 183.254 248.914 182.92H229.749C229.244 183.003 228.972 183.379 228.972 184.089V244.16ZM231.223 242.657V185.259H248.371C263.114 185.259 275.296 198.126 275.296 214.083C275.296 229.874 263.114 242.657 248.371 242.657H231.223ZM285.034 214C285.034 231.545 298.147 245.664 314.442 245.664C330.621 245.664 343.928 231.545 343.928 214C343.928 196.538 330.659 182.251 314.442 182.251C298.147 182.251 285.034 196.58 285.034 214ZM287.362 214C287.362 197.958 299.544 184.758 314.442 184.758C329.34 184.758 341.6 197.958 341.6 214C341.6 230.041 329.34 243.158 314.442 243.158C299.544 243.158 287.362 230.041 287.362 214ZM395.877 205.561C395.877 194.867 388.971 182.92 373.995 182.92H355.606L355.14 183.171C354.946 183.296 354.83 183.63 354.83 184.089V243.826C354.83 244.62 355.179 244.996 355.916 244.996C356.653 244.996 357.003 244.62 357.003 243.826V228.119H373.995C377.409 228.119 380.436 227.534 383.074 226.364L390.523 243.241C390.95 244.536 391.532 244.996 392.307 244.996C393.355 244.87 393.704 243.993 393.239 243.158L385.324 225.195C392.463 221.059 395.877 212.955 395.877 205.561ZM357.003 225.696V185.259H373.995C387.73 185.259 393.627 196.037 393.627 205.561C393.627 215.002 387.73 225.696 373.995 225.696H357.003ZM408.331 234.928H445.925L449.572 244.328C449.727 244.787 449.959 244.996 450.27 244.996C451.007 244.996 451.667 244.453 451.667 243.993C451.667 243.743 451.628 243.534 451.512 243.325L428.233 183.421C428.117 182.878 427.807 182.586 427.341 182.586H426.875C426.526 182.586 426.294 182.794 426.099 183.212L402.705 243.408C402.627 243.617 402.589 243.826 402.589 243.993C402.589 244.453 403.054 244.996 403.947 244.996C404.373 245.038 404.49 244.787 404.761 244.16L408.331 234.928ZM409.262 232.547L427.108 186.638L444.993 232.547H409.262Z"/>
</mask>
<path d="M99.4299 219.597H57.8395V184.089C57.8395 183.296 57.4901 182.92 56.7532 182.92C56.0158 182.92 55.6667 183.296 55.6667 184.089V243.826C55.6667 244.62 56.0158 244.996 56.7532 244.996C57.4901 244.996 57.8395 244.62 57.8395 243.826V222.02H99.4299V243.826C99.4299 244.62 99.7789 244.996 100.516 244.996C101.292 244.996 101.68 244.62 101.68 243.826V184.089C101.68 183.296 101.292 182.92 100.516 182.92C99.7789 182.92 99.4299 183.296 99.4299 184.089V219.597ZM116.462 234.928H154.056L157.702 244.328C157.858 244.787 158.09 244.996 158.401 244.996C159.138 244.996 159.798 244.453 159.798 243.993C159.798 243.743 159.759 243.534 159.643 243.325L136.364 183.421C136.248 182.878 135.938 182.586 135.472 182.586H135.006C134.657 182.586 134.425 182.794 134.23 183.212L110.836 243.408C110.758 243.617 110.72 243.826 110.72 243.993C110.72 244.453 111.185 244.996 112.077 244.996C112.504 245.038 112.62 244.787 112.892 244.16L116.462 234.928ZM117.392 232.547L135.239 186.638L153.124 232.547H117.392ZM213.919 241.821L170.699 182.084C170.389 181.75 170.234 181.667 169.769 181.667C169.186 181.667 168.915 182.043 168.915 182.836V243.826C168.915 244.62 169.303 244.996 170.079 244.996C170.816 244.996 171.165 244.62 171.165 243.826V186.512L213.997 246.166C214.269 246.458 214.463 246.667 215.083 246.667C215.665 246.667 216.014 246.374 216.092 245.748V184.089C216.092 183.296 215.743 182.92 215.006 182.92C214.269 182.92 213.919 183.296 213.919 184.089V241.821ZM228.972 244.16C228.972 244.411 229.05 244.578 229.205 244.662L229.361 244.829C229.516 244.954 229.71 244.996 230.136 244.996H248.371C264.433 244.996 277.546 231.378 277.546 214.083C277.546 196.872 264.666 183.254 248.914 182.92H229.749C229.244 183.003 228.972 183.379 228.972 184.089V244.16ZM231.223 242.657V185.259H248.371C263.114 185.259 275.296 198.126 275.296 214.083C275.296 229.874 263.114 242.657 248.371 242.657H231.223ZM285.034 214C285.034 231.545 298.147 245.664 314.442 245.664C330.621 245.664 343.928 231.545 343.928 214C343.928 196.538 330.659 182.251 314.442 182.251C298.147 182.251 285.034 196.58 285.034 214ZM287.362 214C287.362 197.958 299.544 184.758 314.442 184.758C329.34 184.758 341.6 197.958 341.6 214C341.6 230.041 329.34 243.158 314.442 243.158C299.544 243.158 287.362 230.041 287.362 214ZM395.877 205.561C395.877 194.867 388.971 182.92 373.995 182.92H355.606L355.14 183.171C354.946 183.296 354.83 183.63 354.83 184.089V243.826C354.83 244.62 355.179 244.996 355.916 244.996C356.653 244.996 357.003 244.62 357.003 243.826V228.119H373.995C377.409 228.119 380.436 227.534 383.074 226.364L390.523 243.241C390.95 244.536 391.532 244.996 392.307 244.996C393.355 244.87 393.704 243.993 393.239 243.158L385.324 225.195C392.463 221.059 395.877 212.955 395.877 205.561ZM357.003 225.696V185.259H373.995C387.73 185.259 393.627 196.037 393.627 205.561C393.627 215.002 387.73 225.696 373.995 225.696H357.003ZM408.331 234.928H445.925L449.572 244.328C449.727 244.787 449.959 244.996 450.27 244.996C451.007 244.996 451.667 244.453 451.667 243.993C451.667 243.743 451.628 243.534 451.512 243.325L428.233 183.421C428.117 182.878 427.807 182.586 427.341 182.586H426.875C426.526 182.586 426.294 182.794 426.099 183.212L402.705 243.408C402.627 243.617 402.589 243.826 402.589 243.993C402.589 244.453 403.054 244.996 403.947 244.996C404.373 245.038 404.49 244.787 404.761 244.16L408.331 234.928ZM409.262 232.547L427.108 186.638L444.993 232.547H409.262Z" fill="white"/>
<path d="M99.4299 219.597H57.8395V184.089C57.8395 183.296 57.4901 182.92 56.7532 182.92C56.0158 182.92 55.6667 183.296 55.6667 184.089V243.826C55.6667 244.62 56.0158 244.996 56.7532 244.996C57.4901 244.996 57.8395 244.62 57.8395 243.826V222.02H99.4299V243.826C99.4299 244.62 99.7789 244.996 100.516 244.996C101.292 244.996 101.68 244.62 101.68 243.826V184.089C101.68 183.296 101.292 182.92 100.516 182.92C99.7789 182.92 99.4299 183.296 99.4299 184.089V219.597ZM116.462 234.928H154.056L157.702 244.328C157.858 244.787 158.09 244.996 158.401 244.996C159.138 244.996 159.798 244.453 159.798 243.993C159.798 243.743 159.759 243.534 159.643 243.325L136.364 183.421C136.248 182.878 135.938 182.586 135.472 182.586H135.006C134.657 182.586 134.425 182.794 134.23 183.212L110.836 243.408C110.758 243.617 110.72 243.826 110.72 243.993C110.72 244.453 111.185 244.996 112.077 244.996C112.504 245.038 112.62 244.787 112.892 244.16L116.462 234.928ZM117.392 232.547L135.239 186.638L153.124 232.547H117.392ZM213.919 241.821L170.699 182.084C170.389 181.75 170.234 181.667 169.769 181.667C169.186 181.667 168.915 182.043 168.915 182.836V243.826C168.915 244.62 169.303 244.996 170.079 244.996C170.816 244.996 171.165 244.62 171.165 243.826V186.512L213.997 246.166C214.269 246.458 214.463 246.667 215.083 246.667C215.665 246.667 216.014 246.374 216.092 245.748V184.089C216.092 183.296 215.743 182.92 215.006 182.92C214.269 182.92 213.919 183.296 213.919 184.089V241.821ZM228.972 244.16C228.972 244.411 229.05 244.578 229.205 244.662L229.361 244.829C229.516 244.954 229.71 244.996 230.136 244.996H248.371C264.433 244.996 277.546 231.378 277.546 214.083C277.546 196.872 264.666 183.254 248.914 182.92H229.749C229.244 183.003 228.972 183.379 228.972 184.089V244.16ZM231.223 242.657V185.259H248.371C263.114 185.259 275.296 198.126 275.296 214.083C275.296 229.874 263.114 242.657 248.371 242.657H231.223ZM285.034 214C285.034 231.545 298.147 245.664 314.442 245.664C330.621 245.664 343.928 231.545 343.928 214C343.928 196.538 330.659 182.251 314.442 182.251C298.147 182.251 285.034 196.58 285.034 214ZM287.362 214C287.362 197.958 299.544 184.758 314.442 184.758C329.34 184.758 341.6 197.958 341.6 214C341.6 230.041 329.34 243.158 314.442 243.158C299.544 243.158 287.362 230.041 287.362 214ZM395.877 205.561C395.877 194.867 388.971 182.92 373.995 182.92H355.606L355.14 183.171C354.946 183.296 354.83 183.63 354.83 184.089V243.826C354.83 244.62 355.179 244.996 355.916 244.996C356.653 244.996 357.003 244.62 357.003 243.826V228.119H373.995C377.409 228.119 380.436 227.534 383.074 226.364L390.523 243.241C390.95 244.536 391.532 244.996 392.307 244.996C393.355 244.87 393.704 243.993 393.239 243.158L385.324 225.195C392.463 221.059 395.877 212.955 395.877 205.561ZM357.003 225.696V185.259H373.995C387.73 185.259 393.627 196.037 393.627 205.561C393.627 215.002 387.73 225.696 373.995 225.696H357.003ZM408.331 234.928H445.925L449.572 244.328C449.727 244.787 449.959 244.996 450.27 244.996C451.007 244.996 451.667 244.453 451.667 243.993C451.667 243.743 451.628 243.534 451.512 243.325L428.233 183.421C428.117 182.878 427.807 182.586 427.341 182.586H426.875C426.526 182.586 426.294 182.794 426.099 183.212L402.705 243.408C402.627 243.617 402.589 243.826 402.589 243.993C402.589 244.453 403.054 244.996 403.947 244.996C404.373 245.038 404.49 244.787 404.761 244.16L408.331 234.928ZM409.262 232.547L427.108 186.638L444.993 232.547H409.262Z" stroke="white" stroke-width="4" stroke-miterlimit="2.61313" stroke-linecap="round" stroke-linejoin="round" mask="url(#path-6-outside-1_20_1245)"/>
</svg>
